<?xml version="1.0" encoding="UTF-8"?>
<!DOCTYPE svg PUBLIC "-//W3C//DTD SVG 1.1//EN" "http://www.w3.org/Graphics/SVG/1.1/DTD/svg11.dtd">
<svg xmlns="http://www.w3.org/2000/svg" version="1.1" width="1200px" height="1200px" style="shape-rendering:geometricPrecision; text-rendering:geometricPrecision; image-rendering:optimizeQuality; fill-rule:evenodd; clip-rule:evenodd" xmlns:xlink="http://www.w3.org/1999/xlink">
<g><path style="opacity:0.994" fill="#3b64af" d="M 580.5,32.5 C 753.956,30.8884 899.789,92.8884 1018,218.5C 1134.2,351.806 1181.2,506.806 1159,683.5C 1129.98,854.179 1043.48,986.679 899.5,1081C 760.186,1165.05 611.186,1187.71 452.5,1149C 300.213,1106.01 184.047,1016.51 104,880.5C 29.5619,744.399 11.5619,601.065 50,450.5C 92.5102,304.371 178.344,191.538 307.5,112C 391.781,62.677 482.781,36.177 580.5,32.5 Z"/></g>
<g><path style="opacity:1" fill="#fefefe" d="M 224.5,346.5 C 473.834,346.333 723.167,346.5 972.5,347C 981.901,349.627 987.234,355.793 988.5,365.5C 988.579,373.175 985.579,379.342 979.5,384C 855.348,480.908 731.014,577.575 606.5,674C 600.245,675.127 594.245,674.46 588.5,672C 465.786,575.618 342.786,479.618 219.5,384C 206.197,369.53 207.864,357.03 224.5,346.5 Z"/></g>
<g><path style="opacity:1" fill="#d3dcec" d="M 181.5,422.5 C 180.5,564.666 180.167,706.999 180.5,849.5C 179.167,706.999 179.167,564.333 180.5,421.5C 181.107,421.624 181.44,421.957 181.5,422.5 Z"/></g>
<g><path style="opacity:1" fill="#fefefe" d="M 181.5,422.5 C 306.166,519.175 430.499,616.342 554.5,714C 575.506,729.129 598.506,732.795 623.5,725C 630.942,722.113 637.942,718.446 644.5,714C 761.835,621.675 879.501,529.842 997.5,438.5C 998.5,575.999 998.833,713.666 998.5,851.5C 994.981,867.852 984.981,877.685 968.5,881C 715.833,881.667 463.167,881.667 210.5,881C 193.096,877.432 183.096,866.932 180.5,849.5C 180.167,706.999 180.5,564.666 181.5,422.5 Z"/></g>
<g><path style="opacity:1" fill="#7794c7" d="M 998.5,437.5 C 998.56,436.957 998.893,436.624 999.5,436.5C 1000.83,573.999 1000.83,711.333 999.5,848.5C 999.833,711.332 999.5,574.332 998.5,437.5 Z"/></g>
<g><path style="opacity:1" fill="#f0f3f8" d="M 997.5,438.5 C 997.5,437.833 997.833,437.5 998.5,437.5C 999.5,574.332 999.833,711.332 999.5,848.5C 999.737,849.791 999.404,850.791 998.5,851.5C 998.833,713.666 998.5,575.999 997.5,438.5 Z"/></g>
</svg>
