<?xml version="1.0" encoding="UTF-8"?>
<!DOCTYPE svg PUBLIC "-//W3C//DTD SVG 1.1//EN" "http://www.w3.org/Graphics/SVG/1.1/DTD/svg11.dtd">
<svg xmlns="http://www.w3.org/2000/svg" version="1.1" width="3500px" height="3516px" style="shape-rendering:geometricPrecision; text-rendering:geometricPrecision; image-rendering:optimizeQuality; fill-rule:evenodd; clip-rule:evenodd" xmlns:xlink="http://www.w3.org/1999/xlink">
<g><path style="opacity:1" fill="#fefefe" d="M 1698.5,-0.5 C 1737.17,-0.5 1775.83,-0.5 1814.5,-0.5C 1900.5,2.61147 1985.84,11.9448 2070.5,27.5C 2448,101.276 2766.83,278.276 3027,558.5C 3296.57,856.214 3446.23,1206.55 3476,1609.5C 3498.04,1988.36 3407.37,2337.36 3204,2656.5C 3009.59,2952.57 2749.76,3170.74 2424.5,3311C 2145.25,3427.04 1855.25,3468.04 1554.5,3434C 1364.4,3411.3 1183.07,3358.63 1010.5,3276C 984.083,3262.79 957.75,3249.62 931.5,3236.5C 627.7,3315.7 324.033,3395.37 20.5,3475.5C 20.1667,3475.17 19.8333,3474.83 19.5,3474.5C 100.988,3177.55 182.321,2880.55 263.5,2583.5C 78.2405,2254.38 5.4072,1901.71 45,1525.5C 86.9525,1184.07 216.952,881.735 435,618.5C 699.108,307.944 1031.94,111.611 1433.5,29.5C 1521.08,12.7687 1609.42,2.76866 1698.5,-0.5 Z"/></g>
<g><path style="opacity:0.985" fill="#e0e0e0" d="M 2070.5,27.5 C 2361.57,80.9057 2621.57,199.739 2850.5,384C 3089.08,577.946 3265.58,817.779 3380,1103.5C 3452.51,1290.19 3492.34,1483.52 3499.5,1683.5C 3499.5,1722.5 3499.5,1761.5 3499.5,1800.5C 3484.15,2168.78 3366.65,2499.78 3147,2793.5C 2934.3,3071 2663.13,3269.17 2333.5,3388C 2029.47,3492.6 1719.81,3513.27 1404.5,3450C 1235.16,3414.89 1074.66,3356.06 923,3273.5C 616.433,3354.27 309.933,3434.93 3.5,3515.5C 2.16667,3515.5 0.833333,3515.5 -0.5,3515.5C -0.5,3514.17 -0.5,3512.83 -0.5,3511.5C 81.8911,3212.11 164.224,2912.61 246.5,2613C 98.1356,2354.19 20.6356,2075.36 14,1776.5C 9.42389,1379.2 124.091,1021.2 358,702.5C 558.01,437.522 812.176,243.022 1120.5,119C 1221.93,79.0594 1326.26,49.2261 1433.5,29.5C 1031.94,111.611 699.108,307.944 435,618.5C 216.952,881.735 86.9525,1184.07 45,1525.5C 5.4072,1901.71 78.2405,2254.38 263.5,2583.5C 182.321,2880.55 100.988,3177.55 19.5,3474.5C 19.8333,3474.83 20.1667,3475.17 20.5,3475.5C 324.033,3395.37 627.7,3315.7 931.5,3236.5C 957.75,3249.62 984.083,3262.79 1010.5,3276C 1183.07,3358.63 1364.4,3411.3 1554.5,3434C 1855.25,3468.04 2145.25,3427.04 2424.5,3311C 2749.76,3170.74 3009.59,2952.57 3204,2656.5C 3407.37,2337.36 3498.04,1988.36 3476,1609.5C 3446.23,1206.55 3296.57,856.214 3027,558.5C 2766.83,278.276 2448,101.276 2070.5,27.5 Z"/></g>
<g><path style="opacity:1" fill="#59d264" d="M 2496.5,496.5 C 2003.83,496.5 1511.17,496.5 1018.5,496.5C 1271.12,345.43 1544.78,277.596 1839.5,293C 2046.11,305.316 2241.11,359.316 2424.5,455C 2449.05,468.102 2473.05,481.936 2496.5,496.5 Z"/></g>
<g><path style="opacity:1" fill="#55cf61" d="M 1018.5,496.5 C 1511.17,496.5 2003.83,496.5 2496.5,496.5C 2594.07,555.686 2683.74,625.519 2765.5,706C 2770.39,711.627 2775.39,717.127 2780.5,722.5C 2098.17,722.5 1415.83,722.5 733.5,722.5C 819.178,634.9 914.178,559.567 1018.5,496.5 Z"/></g>
<g><path style="opacity:1" fill="#52cd5f" d="M 733.5,722.5 C 1415.83,722.5 2098.17,722.5 2780.5,722.5C 2811.66,753.65 2840.99,786.316 2868.5,820.5C 2127.83,820.5 1387.17,820.5 646.5,820.5C 673.278,786.044 702.278,753.377 733.5,722.5 Z"/></g>
<g><path style="opacity:1" fill="#50cd5e" d="M 646.5,820.5 C 1387.17,820.5 2127.83,820.5 2868.5,820.5C 2889.61,845.385 2909.28,871.385 2927.5,898.5C 2147.17,898.5 1366.83,898.5 586.5,898.5C 605.382,871.621 625.382,845.621 646.5,820.5 Z"/></g>
<g><path style="opacity:1" fill="#4dca5b" d="M 586.5,898.5 C 1366.83,898.5 2147.17,898.5 2927.5,898.5C 2991.73,987.934 3044.4,1084.27 3085.5,1187.5C 2525,1187.17 1964.67,1187.5 1404.5,1188.5C 1379.27,1126.69 1353.44,1065.03 1327,1003.5C 1319.34,986.171 1309.68,970.171 1298,955.5C 1281.91,937.544 1261.75,928.377 1237.5,928C 1202.84,926.604 1168.18,926.27 1133.5,927C 1100.63,931.608 1071.63,944.608 1046.5,966C 1006.31,1004.5 971.808,1047.33 943,1094.5C 926.466,1124.3 912.966,1155.3 902.5,1187.5C 744.43,1187.17 586.43,1187.5 428.5,1188.5C 469.83,1085.14 522.497,988.47 586.5,898.5 Z"/></g>
<g><path style="opacity:1" fill="#fefefe" d="M 1404.5,1188.5 C 1419.6,1227.15 1435.27,1265.48 1451.5,1303.5C 1456.87,1316.23 1462.21,1328.9 1467.5,1341.5C 1472.02,1358.42 1471.19,1375.09 1465,1391.5C 1454.46,1414.93 1442.12,1437.26 1428,1458.5C 1416.16,1472.86 1404.33,1487.2 1392.5,1501.5C 1374.98,1522.87 1356.48,1543.53 1337,1563.5C 1321.05,1585.23 1320.39,1607.56 1335,1630.5C 1349.61,1656.08 1365.44,1680.75 1382.5,1704.5C 1408.16,1744.14 1436.49,1781.81 1467.5,1817.5C 1482.41,1836.42 1498.41,1854.42 1515.5,1871.5C 1613.02,1973.83 1726.02,2054.67 1854.5,2114C 1880,2124.95 1905.33,2136.28 1930.5,2148C 1942.04,2153.63 1954.21,2156.79 1967,2157.5C 1983.24,2157.29 1997.08,2151.46 2008.5,2140C 2050.46,2091.71 2091.3,2042.54 2131,1992.5C 2140.39,1980.11 2149.39,1967.44 2158,1954.5C 2173.95,1934.07 2194.45,1927.24 2219.5,1934C 2228.64,1936.2 2237.64,1938.87 2246.5,1942C 2281.59,1956.7 2316.25,1972.36 2350.5,1989C 2432.32,2028.74 2513.99,2068.74 2595.5,2109C 2607.17,2114.52 2616.83,2122.35 2624.5,2132.5C 2626.69,2136.91 2628.19,2141.58 2629,2146.5C 2630.26,2159.13 2630.76,2171.8 2630.5,2184.5C 2627.41,2238.44 2616.58,2290.77 2598,2341.5C 2588.74,2363.04 2576.24,2382.37 2560.5,2399.5C 2523.23,2439.44 2480.57,2472.11 2432.5,2497.5C 2398.14,2516.68 2361.81,2530.85 2323.5,2540C 2289.34,2545.15 2255.01,2548.32 2220.5,2549.5C 2183.45,2548.71 2146.78,2544.55 2110.5,2537C 2061.16,2526.33 2012.5,2513.17 1964.5,2497.5C 1900.21,2475.9 1836.54,2452.4 1773.5,2427C 1753.15,2417.82 1732.81,2408.65 1712.5,2399.5C 1621.6,2353.91 1536.93,2299.07 1458.5,2235C 1434.04,2215.04 1410.04,2194.54 1386.5,2173.5C 1371.73,2158.94 1356.73,2144.61 1341.5,2130.5C 1259.06,2049.76 1184.06,1963.1 1116.5,1870.5C 1089.17,1830.51 1061.34,1790.85 1033,1751.5C 1022.61,1735.95 1012.44,1720.28 1002.5,1704.5C 963.106,1641.04 931.773,1573.71 908.5,1502.5C 892.06,1452.19 883.06,1400.53 881.5,1347.5C 880.764,1293.11 887.764,1239.78 902.5,1187.5C 912.966,1155.3 926.466,1124.3 943,1094.5C 971.808,1047.33 1006.31,1004.5 1046.5,966C 1071.63,944.608 1100.63,931.608 1133.5,927C 1168.18,926.27 1202.84,926.604 1237.5,928C 1261.75,928.377 1281.91,937.544 1298,955.5C 1309.68,970.171 1319.34,986.171 1327,1003.5C 1353.44,1065.03 1379.27,1126.69 1404.5,1188.5 Z"/></g>
<g><path style="opacity:1" fill="#49c858" d="M 902.5,1187.5 C 887.764,1239.78 880.764,1293.11 881.5,1347.5C 880.532,1345.39 880.198,1343.06 880.5,1340.5C 712.5,1340.5 544.5,1340.5 376.5,1340.5C 390.878,1288.7 408.212,1238.03 428.5,1188.5C 586.43,1187.5 744.43,1187.17 902.5,1187.5 Z"/></g>
<g><path style="opacity:1" fill="#49c858" d="M 3085.5,1187.5 C 3101.01,1224.7 3114.34,1262.7 3125.5,1301.5C 2567.17,1300.83 2009.17,1301.5 1451.5,1303.5C 1435.27,1265.48 1419.6,1227.15 1404.5,1188.5C 1964.67,1187.5 2525,1187.17 3085.5,1187.5 Z"/></g>
<g><path style="opacity:1" fill="#48c857" d="M 3125.5,1301.5 C 3129.95,1314.26 3133.95,1327.26 3137.5,1340.5C 2580.67,1340.17 2024,1340.5 1467.5,1341.5C 1462.21,1328.9 1456.87,1316.23 1451.5,1303.5C 2009.17,1301.5 2567.17,1300.83 3125.5,1301.5 Z"/></g>
<g><path style="opacity:1" fill="#46c655" d="M 376.5,1340.5 C 544.5,1340.5 712.5,1340.5 880.5,1340.5C 880.198,1343.06 880.532,1345.39 881.5,1347.5C 883.06,1400.53 892.06,1452.19 908.5,1502.5C 814.07,1501.83 719.57,1501.5 625,1501.5C 530.292,1501.5 435.792,1502.17 341.5,1503.5C 350.057,1448.49 361.724,1394.15 376.5,1340.5 Z"/></g>
<g><path style="opacity:1" fill="#46c655" d="M 3137.5,1340.5 C 3152.15,1393.46 3163.49,1447.13 3171.5,1501.5C 2578.5,1501.5 1985.5,1501.5 1392.5,1501.5C 1404.33,1487.2 1416.16,1472.86 1428,1458.5C 1442.12,1437.26 1454.46,1414.93 1465,1391.5C 1471.19,1375.09 1472.02,1358.42 1467.5,1341.5C 2024,1340.5 2580.67,1340.17 3137.5,1340.5 Z"/></g>
<g><path style="opacity:1" fill="#42c453" d="M 908.5,1502.5 C 931.773,1573.71 963.106,1641.04 1002.5,1704.5C 776.833,1704.5 551.167,1704.5 325.5,1704.5C 325.5,1719.5 325.5,1734.5 325.5,1749.5C 323.299,1667.14 328.632,1585.14 341.5,1503.5C 435.792,1502.17 530.292,1501.5 625,1501.5C 719.57,1501.5 814.07,1501.83 908.5,1502.5 Z"/></g>
<g><path style="opacity:1" fill="#42c453" d="M 1392.5,1501.5 C 1985.5,1501.5 2578.5,1501.5 3171.5,1501.5C 3182.58,1570.7 3188.25,1640.37 3188.5,1710.5C 3187.54,1708.74 3187.21,1706.74 3187.5,1704.5C 2585.83,1704.5 1984.17,1704.5 1382.5,1704.5C 1365.44,1680.75 1349.61,1656.08 1335,1630.5C 1320.39,1607.56 1321.05,1585.23 1337,1563.5C 1356.48,1543.53 1374.98,1522.87 1392.5,1501.5 Z"/></g>
<g><path style="opacity:1" fill="#3fc250" d="M 1002.5,1704.5 C 1012.44,1720.28 1022.61,1735.95 1033,1751.5C 1061.34,1790.85 1089.17,1830.51 1116.5,1870.5C 855.5,1870.5 594.5,1870.5 333.5,1870.5C 333.5,1871.5 333.5,1872.5 333.5,1873.5C 328.398,1832.48 325.732,1791.15 325.5,1749.5C 325.5,1734.5 325.5,1719.5 325.5,1704.5C 551.167,1704.5 776.833,1704.5 1002.5,1704.5 Z"/></g>
<g><path style="opacity:1" fill="#3fc250" d="M 1382.5,1704.5 C 1984.17,1704.5 2585.83,1704.5 3187.5,1704.5C 3187.21,1706.74 3187.54,1708.74 3188.5,1710.5C 3188.92,1747.72 3187.59,1784.72 3184.5,1821.5C 3184.5,1819.83 3184.5,1818.17 3184.5,1816.5C 2612,1816.17 2039.67,1816.5 1467.5,1817.5C 1436.49,1781.81 1408.16,1744.14 1382.5,1704.5 Z"/></g>
<g><path style="opacity:1" fill="#3ec24f" d="M 3184.5,1821.5 C 3183.71,1838.36 3182.37,1855.02 3180.5,1871.5C 2625.5,1870.17 2070.5,1870.17 1515.5,1871.5C 1498.41,1854.42 1482.41,1836.42 1467.5,1817.5C 2039.67,1816.5 2612,1816.17 3184.5,1816.5C 3184.5,1818.17 3184.5,1819.83 3184.5,1821.5 Z"/></g>
<g><path style="opacity:1" fill="#3abf4d" d="M 1116.5,1870.5 C 1184.06,1963.1 1259.06,2049.76 1341.5,2130.5C 1022.5,2130.5 703.5,2130.5 384.5,2130.5C 359.193,2046.63 342.193,1960.97 333.5,1873.5C 333.5,1872.5 333.5,1871.5 333.5,1870.5C 594.5,1870.5 855.5,1870.5 1116.5,1870.5 Z"/></g>
<g><path style="opacity:1" fill="#3bc04d" d="M 3180.5,1871.5 C 3171.47,1959.99 3154.14,2046.66 3128.5,2131.5C 3044.67,2130.83 2960.67,2130.5 2876.5,2130.5C 2792.16,2130.5 2708.16,2131.17 2624.5,2132.5C 2616.83,2122.35 2607.17,2114.52 2595.5,2109C 2513.99,2068.74 2432.32,2028.74 2350.5,1989C 2316.25,1972.36 2281.59,1956.7 2246.5,1942C 2237.64,1938.87 2228.64,1936.2 2219.5,1934C 2194.45,1927.24 2173.95,1934.07 2158,1954.5C 2149.39,1967.44 2140.39,1980.11 2131,1992.5C 2091.3,2042.54 2050.46,2091.71 2008.5,2140C 1997.08,2151.46 1983.24,2157.29 1967,2157.5C 1954.21,2156.79 1942.04,2153.63 1930.5,2148C 1905.33,2136.28 1880,2124.95 1854.5,2114C 1726.02,2054.67 1613.02,1973.83 1515.5,1871.5C 2070.5,1870.17 2625.5,1870.17 3180.5,1871.5 Z"/></g>
<g><path style="opacity:1" fill="#38be4b" d="M 384.5,2130.5 C 703.5,2130.5 1022.5,2130.5 1341.5,2130.5C 1356.73,2144.61 1371.73,2158.94 1386.5,2173.5C 1057,2173.17 727.666,2173.5 398.5,2174.5C 392.923,2160.22 388.257,2145.55 384.5,2130.5 Z"/></g>
<g><path style="opacity:1" fill="#38be4b" d="M 3128.5,2131.5 C 3124.57,2145.64 3120.23,2159.64 3115.5,2173.5C 2954.17,2173.5 2792.83,2173.5 2631.5,2173.5C 2631.81,2177.37 2631.48,2181.04 2630.5,2184.5C 2630.76,2171.8 2630.26,2159.13 2629,2146.5C 2628.19,2141.58 2626.69,2136.91 2624.5,2132.5C 2708.16,2131.17 2792.16,2130.5 2876.5,2130.5C 2960.67,2130.5 3044.67,2130.83 3128.5,2131.5 Z"/></g>
<g><path style="opacity:1" fill="#35bc48" d="M 1386.5,2173.5 C 1410.04,2194.54 1434.04,2215.04 1458.5,2235C 1536.93,2299.07 1621.6,2353.91 1712.5,2399.5C 1306.67,2399.17 901,2399.5 495.5,2400.5C 456.057,2328.27 423.724,2252.94 398.5,2174.5C 727.666,2173.5 1057,2173.17 1386.5,2173.5 Z"/></g>
<g><path style="opacity:1" fill="#35bc48" d="M 3115.5,2173.5 C 3089.91,2252 3057.25,2327.33 3017.5,2399.5C 2865.17,2399.5 2712.83,2399.5 2560.5,2399.5C 2576.24,2382.37 2588.74,2363.04 2598,2341.5C 2616.58,2290.77 2627.41,2238.44 2630.5,2184.5C 2631.48,2181.04 2631.81,2177.37 2631.5,2173.5C 2792.83,2173.5 2954.17,2173.5 3115.5,2173.5 Z"/></g>
<g><path style="opacity:1" fill="#32ba46" d="M 1712.5,2399.5 C 1732.81,2408.65 1753.15,2417.82 1773.5,2427C 1836.54,2452.4 1900.21,2475.9 1964.5,2497.5C 1494,2497.17 1023.67,2497.5 553.5,2498.5C 532.67,2466.86 513.336,2434.19 495.5,2400.5C 901,2399.5 1306.67,2399.17 1712.5,2399.5 Z"/></g>
<g><path style="opacity:1" fill="#32ba46" d="M 2560.5,2399.5 C 2712.83,2399.5 2865.17,2399.5 3017.5,2399.5C 3000.18,2433.49 2980.85,2466.16 2959.5,2497.5C 2783.83,2497.5 2608.17,2497.5 2432.5,2497.5C 2480.57,2472.11 2523.23,2439.44 2560.5,2399.5 Z"/></g>
<g><path style="opacity:1" fill="#30ba45" d="M 1964.5,2497.5 C 2012.5,2513.17 2061.16,2526.33 2110.5,2537C 2146.78,2544.55 2183.45,2548.71 2220.5,2549.5C 2255.01,2548.32 2289.34,2545.15 2323.5,2540C 2361.81,2530.85 2398.14,2516.68 2432.5,2497.5C 2608.17,2497.5 2783.83,2497.5 2959.5,2497.5C 2942.65,2525.22 2924.31,2551.88 2904.5,2577.5C 2125.67,2576.5 1346.67,2576.17 567.5,2576.5C 570.616,2563.81 573.95,2551.14 577.5,2538.5C 569.493,2525.15 561.493,2511.82 553.5,2498.5C 1023.67,2497.5 1494,2497.17 1964.5,2497.5 Z"/></g>
<g><path style="opacity:1" fill="#2db842" d="M 567.5,2576.5 C 1346.67,2576.17 2125.67,2576.5 2904.5,2577.5C 2839.97,2664.71 2765.97,2743.38 2682.5,2813.5C 1956,2812.5 1229.33,2812.17 502.5,2812.5C 523.854,2733.75 545.521,2655.08 567.5,2576.5 Z"/></g>
<g><path style="opacity:1" fill="#2ab640" d="M 502.5,2812.5 C 1229.33,2812.17 1956,2812.5 2682.5,2813.5C 2632.69,2856.4 2580.03,2895.4 2524.5,2930.5C 2011.83,2929.17 1499.17,2929.17 986.5,2930.5C 982.404,2928.37 978.237,2926.37 974,2924.5C 966.264,2926.89 958.43,2928.89 950.5,2930.5C 790.668,2929.5 630.668,2929.17 470.5,2929.5C 481.448,2890.6 492.114,2851.6 502.5,2812.5 Z"/></g>
<g><path style="opacity:1" fill="#29b53f" d="M 470.5,2929.5 C 630.668,2929.17 790.668,2929.5 950.5,2930.5C 778.362,2976.13 606.028,3021.13 433.5,3065.5C 445.529,3020.05 457.862,2974.71 470.5,2929.5 Z"/></g>
<g><path style="opacity:1" fill="#28b53f" d="M 2524.5,2930.5 C 2497.31,2948.33 2469.31,2964.99 2440.5,2980.5C 1984.5,2979.17 1528.5,2979.17 1072.5,2980.5C 1043.17,2964.84 1014.5,2948.17 986.5,2930.5C 1499.17,2929.17 2011.83,2929.17 2524.5,2930.5 Z"/></g>
<g><path style="opacity:1" fill="#27b43d" d="M 2440.5,2980.5 C 2193.49,3113.46 1929.82,3170.29 1649.5,3151C 1444.78,3135.25 1252.45,3078.41 1072.5,2980.5C 1528.5,2979.17 1984.5,2979.17 2440.5,2980.5 Z"/></g>
</svg>
